<?xml version="1.0" encoding="UTF-8"?>
<svg id="Layer_1" data-name="Layer 1" xmlns="http://www.w3.org/2000/svg" version="1.1" viewBox="0 0 113.2 33.5">
  <defs>
    <style>
      .cls-1 {
        fill: #30455c;
        stroke-width: 0px;
      }
    </style>
  </defs>
  <path class="cls-1" d="M.3,16.7c0-3,0-5.9,0-8.9,0-3.1,1.5-5.4,4.3-6.7C7.5-.2,10.4.2,12.9,2.4c1,.9,2,1.9,2.9,2.9.6.7,1.1.6,1.6,0,.9-1,1.8-1.9,2.7-2.8,4.1-4,11.2-2.1,12.5,3.5.6,2.6.1,5.1-1.8,7.1-1,1-1.9,2-2.9,2.9-.6.5-.6.9,0,1.5,1,.9,1.9,1.9,2.8,2.8,2.9,3.1,2.9,7.8-.1,10.7-3,2.9-7.6,2.9-10.7-.2-.8-.8-1.6-1.5-2.4-2.4-.8-1-1.4-.8-2.2,0-.7.8-1.6,1.6-2.4,2.4-2.3,2.3-5.3,2.9-8.3,1.6-2.8-1.2-4.5-3.8-4.5-7v-8.8ZM3.4,16.7c0,3,0,6,0,9.1,0,1.9,1,3.2,2.6,3.9,1.7.8,3.4.5,4.8-.8,1-.9,1.9-1.9,2.9-2.8.7-.6.6-1,0-1.6-2.1-2.1-4.2-4.2-6.3-6.3-1-1-1-1.6,0-2.6,1.5-1.5,3-3,4.5-4.5,1.8-1.8,1-1.6,3,0,.6.5.6.8,0,1.3-1.3,1.2-2.6,2.6-3.9,3.8-.5.4-.5.7,0,1.2,3.8,3.8,7.5,7.6,11.3,11.3,2,1.9,4.5,1.9,6.3,0,1.8-1.8,1.8-4.4,0-6.3-.9-.9-1.8-1.8-2.7-2.8-.5-.5-.9-.5-1.4,0-1.2,1.2-2.4,2.3-3.5,3.6-.9,1-1.4.4-1.9-.2-.5-.6-1.4-1-.3-2,3.4-3.2,6.7-6.6,10-9.9,1.6-1.6,1.8-3.9.5-5.7-1.6-2.3-4.8-2.5-6.8-.6-.9.9-1.8,1.9-2.8,2.7-.7.6-.6,1,0,1.5,1,1,2,2,3,3,1.3,1.3,1.3,1.3,0,2.6-.8.8-1.2.7-1.9,0-3.2-3.3-6.4-6.5-9.7-9.7-1.3-1.3-3.5-1.8-5.1-1-1.7.8-2.6,2.2-2.5,4.1,0,2.9,0,5.8,0,8.7Z"/>
  <path class="cls-1" d="M56.8,24.5c-.1.9-.4,1.7-.8,2.2-.5.5-1.1.8-2,.8s-1.2-.2-1.7-.5c-.5-.3-1-.8-1.6-1.6l-3-3.7v5.5c-.2,0-.5,0-1,.2-.4,0-.9.1-1.3.1s-.8,0-1.2,0c-.3,0-.6-.2-.9-.4-.2-.2-.4-.4-.6-.7-.1-.3-.2-.7-.2-1.2V7.6c.2,0,.5-.1,1-.2.4,0,.9-.1,1.3-.1s.8,0,1.2,0c.3,0,.6.2.9.4.2.2.4.4.6.7s.2.7.2,1.2v7.9l5.2-5.3c1,0,1.9.2,2.5.7.6.5.9,1,.9,1.7s0,.6-.2.8c-.1.3-.3.5-.5.8-.2.3-.5.5-.8.8-.3.3-.7.6-1.2,1l-1.7,1.5,4.8,4.8Z"/>
  <path class="cls-1" d="M73,19.9c0,1.2-.2,2.3-.6,3.3-.4,1-.9,1.8-1.6,2.4-.7.7-1.5,1.2-2.5,1.5-1,.3-2,.5-3.2.5s-2.3-.2-3.2-.5c-1-.4-1.8-.9-2.5-1.5-.7-.7-1.2-1.5-1.6-2.4-.4-1-.6-2-.6-3.2s.2-2.3.6-3.2c.4-1,.9-1.8,1.6-2.4.7-.7,1.5-1.2,2.5-1.5,1-.4,2-.5,3.2-.5s2.3.2,3.2.6,1.8.9,2.5,1.6c.7.7,1.2,1.5,1.6,2.4.4,1,.6,2,.6,3.2ZM62.5,19.9c0,1.2.2,2.2.7,2.8.5.7,1.1,1,2,1s1.5-.3,1.9-1c.5-.7.7-1.6.7-2.8s-.2-2.1-.7-2.8c-.5-.7-1.1-1-2-1s-1.5.3-2,1c-.5.7-.7,1.6-.7,2.8Z"/>
  <path class="cls-1" d="M79.7,22.2c0,.5.2.9.5,1.1.3.2.8.3,1.4.3s.6,0,.9,0c.3,0,.6-.1.8-.2.2.2.3.5.5.7.1.3.2.6.2,1,0,.8-.3,1.4-.9,1.9-.6.5-1.6.7-3,.7s-3.1-.4-4.1-1.2c-1-.8-1.4-2.1-1.4-3.9v-12.8c.2,0,.5-.1.9-.2.4,0,.8-.1,1.3-.1.9,0,1.6.2,2.1.5.5.3.7,1,.7,2v.9h3.9c.1.2.2.5.3.8.1.3.2.7.2,1.1,0,.7-.2,1.2-.5,1.5-.3.3-.7.5-1.2.5h-2.7v5.6h0Z"/>
  <path class="cls-1" d="M91.6,12.1c1.1,0,2.1.1,3,.3.9.2,1.6.6,2.3,1,.6.5,1.1,1,1.5,1.7.3.7.5,1.5.5,2.4v6.7c0,.5-.1.9-.4,1.3-.3.3-.6.6-1,.9-1.3.8-3.1,1.2-5.5,1.2s-2-.1-2.9-.3c-.8-.2-1.6-.5-2.2-.9-.6-.4-1.1-.9-1.4-1.5-.3-.6-.5-1.3-.5-2.2,0-1.4.4-2.4,1.2-3.2.8-.7,2.1-1.2,3.8-1.4l3.9-.4v-.2c0-.6-.3-1-.8-1.2-.5-.2-1.2-.4-2.2-.4s-1.5,0-2.2.2c-.7.2-1.4.4-2,.6-.3-.2-.5-.5-.7-.8-.2-.4-.3-.8-.3-1.2s.1-.9.4-1.2c.2-.3.6-.6,1.2-.8.6-.2,1.3-.4,2.1-.5.8-.1,1.5-.2,2.2-.2ZM91.9,23.9c.3,0,.7,0,1.1-.1.4,0,.7-.2.9-.3v-2.4l-2.2.2c-.6,0-1,.2-1.4.4-.4.2-.5.5-.5.9s.2.7.5,1c.3.2.8.4,1.6.4Z"/>
  <path class="cls-1" d="M112.9,22.8c0,1.5-.6,2.7-1.7,3.6-1.1.9-2.8,1.3-5,1.3s-1.6,0-2.3-.2c-.7-.1-1.3-.3-1.8-.6-.5-.2-.9-.6-1.2-.9-.3-.4-.4-.8-.4-1.3s.1-.9.3-1.2c.2-.3.4-.6.7-.8.6.3,1.2.6,2,.9.8.3,1.6.4,2.6.4s1.1,0,1.4-.3c.3-.2.5-.4.5-.7s-.1-.5-.4-.7c-.2-.2-.6-.3-1.2-.4l-.9-.2c-1.7-.3-3-.9-3.9-1.6-.8-.7-1.3-1.8-1.3-3.1s.2-1.4.5-2c.3-.6.8-1.1,1.3-1.5.6-.4,1.3-.7,2.1-.9.8-.2,1.7-.3,2.7-.3s1.4,0,2.1.2c.6.1,1.2.3,1.7.5.5.2.9.5,1.1.9.3.3.4.8.4,1.2s0,.9-.3,1.2c-.2.3-.4.6-.6.8-.2-.1-.4-.2-.7-.3-.3-.1-.7-.2-1-.3-.4,0-.8-.2-1.2-.2-.4,0-.7,0-1.1,0-.7,0-1.2,0-1.5.2-.4.2-.5.4-.5.7s.1.4.3.5c.2.1.6.3,1.1.4l.9.2c1.9.4,3.3,1,4.1,1.8.8.8,1.2,1.8,1.2,3Z"/>
</svg>